<svg width="100%" height="100%" viewBox="0 0 20 20" fill="none" xmlns="http://www.w3.org/2000/svg">
<path d="M0.714287 15.7143C0.714287 16.5033 1.35281 17.1429 2.14047 17.1429H17.8596C18.6471 17.1429 19.2857 16.5033 19.2857 15.7143V12.8085C18.051 12.4733 17.1427 11.3429 17.1427 10C17.1427 8.6571 18.051 7.52669 19.2857 7.19148V4.28572C19.2857 3.49675 18.6471 2.85715 17.8596 2.85715H2.14047C1.35282 2.85715 0.714287 3.49673 0.714287 4.28572V7.18519C1.961 7.51238 2.8808 8.64859 2.8808 10C2.8808 11.3514 1.961 12.4876 0.714287 12.8148V15.7143Z" stroke="black" stroke-linecap="round" stroke-linejoin="round"/>
<path d="M6.45787 13.5714L13.6007 6.42859" stroke="black" stroke-linecap="round" stroke-linejoin="round"/>
<path d="M7.17216 7.85716C7.56665 7.85716 7.88645 7.53736 7.88645 7.14287C7.88645 6.74839 7.56665 6.42859 7.17216 6.42859C6.77767 6.42859 6.45787 6.74839 6.45787 7.14287C6.45787 7.53736 6.77767 7.85716 7.17216 7.85716Z" stroke="black" stroke-linecap="round" stroke-linejoin="round"/>
<path d="M12.8864 13.5714C13.2809 13.5714 13.6007 13.2516 13.6007 12.8571C13.6007 12.4627 13.2809 12.1429 12.8864 12.1429C12.492 12.1429 12.1722 12.4627 12.1722 12.8571C12.1722 13.2516 12.492 13.5714 12.8864 13.5714Z" stroke="black" stroke-linecap="round" stroke-linejoin="round"/>
</svg>
