<svg width="20" height="20" viewBox="0 0 20 20" fill="none" xmlns="http://www.w3.org/2000/svg">
<path d="M9.99993 12.8571C11.7751 12.8571 13.2142 11.4181 13.2142 9.64286C13.2142 7.86765 11.7751 6.42857 9.99993 6.42857C8.22473 6.42857 6.78564 7.86765 6.78564 9.64286C6.78564 11.4181 8.22473 12.8571 9.99993 12.8571Z" stroke="black" stroke-linecap="round" stroke-linejoin="round"/>
<path d="M15.7142 19.2857C15.1734 18.2364 14.3541 17.3562 13.3461 16.7417C12.3381 16.1273 11.1804 15.8022 9.99993 15.8022C8.81943 15.8022 7.66172 16.1273 6.65375 16.7417C5.64577 17.3562 4.82646 18.2364 4.28564 19.2857" stroke="black" stroke-linecap="round" stroke-linejoin="round"/>
<path d="M17.1428 15.0857C18.1566 13.7634 18.7801 12.1839 18.943 10.5257C19.1058 8.86746 18.8013 7.19679 18.0641 5.70259C17.3269 4.20839 16.1862 2.95029 14.7712 2.07058C13.3562 1.19086 11.7233 0.724644 10.0571 0.724644C8.39094 0.724644 6.758 1.19086 5.34299 2.07058C3.92798 2.95029 2.78736 4.20839 2.05012 5.70259C1.31289 7.19679 1.00846 8.86746 1.17127 10.5257C1.33408 12.1839 1.95763 13.7634 2.9714 15.0857" stroke="black" stroke-linecap="round" stroke-linejoin="round"/>
</svg>
