<svg width="20" height="20" viewBox="0 0 20 20" fill="none" xmlns="http://www.w3.org/2000/svg">
<path d="M17.6091 7.11757H2.39083C2.17469 7.11314 1.9604 7.15742 1.76369 7.24714C1.56697 7.33685 1.39297 7.46971 1.25454 7.63585C1.11612 7.80185 1.01683 7.99699 0.964115 8.20657C0.911401 8.41628 0.906401 8.63514 0.949686 8.84685L2.53497 16.7731C2.6024 17.1034 2.7834 17.3999 3.04683 17.6104C3.31012 17.8211 3.63897 17.9329 3.97611 17.926H16.0238C16.3611 17.9329 16.69 17.8211 16.9533 17.6104C17.2165 17.3999 17.3977 17.1034 17.465 16.7731L19.0503 8.84685C19.0935 8.63514 19.0885 8.41628 19.0358 8.20657C18.9831 7.99699 18.8838 7.80185 18.7454 7.63585C18.607 7.46971 18.433 7.33685 18.2363 7.24714C18.0395 7.15742 17.8253 7.11314 17.6091 7.11757Z" stroke="black" stroke-linecap="round" stroke-linejoin="round"/>
<path d="M12.8822 2.07372L15.7645 7.11757" stroke="black" stroke-linecap="round" stroke-linejoin="round"/>
<path d="M4.23541 7.11757L7.1177 2.07372" stroke="black" stroke-linecap="round" stroke-linejoin="round"/>
</svg>
