<svg width="187" height="55" viewBox="0 0 187 55" fill="none" xmlns="http://www.w3.org/2000/svg">
<g clip-path="url(#clip0_103_1176)">
<path d="M97.7446 26.3738C98.6256 26.7187 99.517 27.1717 100.415 27.7349C101.312 28.298 102.133 28.9629 102.873 29.7297C103.614 30.4965 104.221 31.3568 104.694 32.3126C105.167 33.2685 105.403 34.3075 105.403 35.4338C105.403 36.9673 105.087 38.2515 104.457 39.2843C103.828 40.317 103.03 41.1461 102.07 41.7716C101.107 42.3971 100.03 42.8522 98.8306 43.1327C97.6316 43.4153 96.4661 43.5545 95.3319 43.5545C93.0636 43.5545 90.9669 43.1618 89.0438 42.3805C87.1208 41.5991 85.5618 40.5498 84.3628 39.2344L86.8215 34.5402C86.9157 36.1361 87.2777 37.545 87.9096 38.7648C88.1942 39.2967 88.5395 39.8204 88.9496 40.3378C89.3598 40.8552 89.8641 41.3082 90.4626 41.6989C91.061 42.0916 91.762 42.4116 92.5656 42.661C93.3691 42.9124 94.2919 43.0371 95.3319 43.0371C97.3805 43.0371 98.9876 42.5197 100.153 41.4869C101.319 40.4542 101.902 39.1388 101.902 37.5429C101.902 36.0717 101.612 34.8436 101.028 33.8566C100.444 32.8716 99.7597 32.0654 98.9708 31.4399C98.1819 30.8144 97.3951 30.3365 96.6063 30.0082C95.8174 29.6798 95.2189 29.4222 94.8109 29.2331C94.3379 29.0149 93.8818 28.8112 93.4402 28.6222C93.0615 28.4663 92.6911 28.3105 92.3291 28.1525C91.9671 27.9967 91.6741 27.8699 91.4544 27.7764C90.8559 27.5271 90.178 27.1738 89.4226 26.7208C88.6651 26.2678 87.9724 25.7047 87.3426 25.0314C86.7127 24.3581 86.1917 23.5519 85.7815 22.6147C85.3714 21.6755 85.2145 20.5804 85.3086 19.3294C85.3714 18.5169 85.5848 17.6546 85.9468 16.7465C86.3089 15.8384 86.8613 14.9864 87.602 14.1885C88.3428 13.3906 89.2803 12.7339 90.4144 12.2165C91.5486 11.6991 92.9192 11.4414 94.5284 11.4414C96.1375 11.4414 97.4747 11.6222 98.6423 11.9817C99.8078 12.3412 100.8 12.7401 101.62 13.1786C102.534 13.6794 103.338 14.2591 104.031 14.9158L100.674 19.0946C100.737 17.7502 100.58 16.5449 100.201 15.4789C99.8853 14.5708 99.3035 13.7417 98.4519 12.9916C97.6002 12.2414 96.3238 11.8653 94.6225 11.8653C93.8336 11.8653 93.0866 12.0066 92.3772 12.2871C91.6679 12.5697 91.0296 12.9521 90.4626 13.4383C89.8955 13.9246 89.4226 14.5023 89.0438 15.1755C88.6651 15.8488 88.4286 16.5761 88.3344 17.3595C88.1754 18.7684 88.4767 20.1149 89.2321 21.397C89.9875 22.6812 91.1698 23.6828 92.7769 24.4018C93.5951 24.7467 94.4698 25.0979 95.401 25.4574C96.33 25.8169 97.1106 26.1223 97.7404 26.3738H97.7446Z" fill="#F4F2EF"/>
<path d="M114.196 12.0543C113.88 12.0543 113.636 12.1478 113.464 12.3369C113.29 12.5239 113.165 12.7588 113.085 13.0414C113.006 13.324 112.96 13.6274 112.943 13.9578C112.926 14.2861 112.92 14.6082 112.92 14.9199V40.0364C112.92 40.3502 112.928 40.6702 112.943 40.9985C112.958 41.3268 113.006 41.6323 113.085 41.9149C113.163 42.1975 113.29 42.4323 113.464 42.6193C113.638 42.8064 113.88 42.9019 114.196 42.9019V43.0433H107.672V42.9497C107.986 42.9497 108.231 42.8562 108.404 42.6671C108.578 42.4801 108.703 42.2453 108.783 41.9627C108.86 41.6801 108.909 41.3684 108.925 41.0235C108.94 40.6785 108.948 40.3502 108.948 40.0385V14.9219C108.948 14.6102 108.94 14.2882 108.925 13.9598C108.909 13.6315 108.863 13.326 108.783 13.0434C108.703 12.7608 108.578 12.526 108.404 12.339C108.231 12.152 107.986 12.0564 107.672 12.0564V11.9629H114.196V12.0564V12.0543Z" fill="#F4F2EF"/>
<path d="M116.985 43.0393V42.9458C117.299 42.9458 117.544 42.8523 117.718 42.6632C117.891 42.4762 118.017 42.2414 118.096 41.9588C118.174 41.6762 118.222 41.3645 118.239 41.0195C118.253 40.6746 118.262 40.3463 118.262 40.0346V14.918C118.262 14.6063 118.253 14.2842 118.239 13.9559C118.222 13.6276 118.176 13.3221 118.096 13.0395C118.017 12.7569 117.891 12.5221 117.718 12.3351C117.544 12.1481 117.299 12.0525 116.985 12.0525V11.959H123.51V12.0525C123.194 12.0525 122.949 12.146 122.778 12.3351C122.604 12.5221 122.478 12.7569 122.399 13.0395C122.319 13.3221 122.273 13.6255 122.256 13.9559C122.24 14.2842 122.233 14.6063 122.233 14.918V42.5219H130.317C131.263 42.5219 132.183 42.2102 133.083 41.5827C133.981 40.9572 134.793 40.2673 135.517 39.5172C136.335 38.6423 137.107 37.6387 137.833 36.5124L136.415 43.0851L116.985 43.0373V43.0393Z" fill="#F4F2EF"/>
<path d="M161.755 38.9561C162.479 40.0512 163.205 40.9821 163.929 41.7489C164.653 42.5157 165.317 42.9001 165.915 42.9001V43.0414H162.417C161.755 43.0414 161.203 42.9874 160.761 42.8773C160.32 42.7671 159.935 42.5947 159.602 42.3598C159.271 42.125 158.955 41.8196 158.656 41.4435C158.357 41.0673 158.018 40.6143 157.639 40.0824C157.166 39.4257 156.622 38.6112 156.009 37.6407C155.394 36.6703 154.764 35.6687 154.118 34.636C153.471 33.6032 152.849 32.6016 152.251 31.6312C151.652 30.6608 151.131 29.8462 150.69 29.1896C150.28 28.5641 149.824 28.1257 149.319 27.8742C148.815 27.6249 148.279 27.4981 147.712 27.4981C146.609 27.4981 145.538 27.92 144.498 28.7657V40.0325C144.498 40.3463 144.506 40.6663 144.521 40.9946C144.536 41.3229 144.584 41.6284 144.663 41.911C144.741 42.1936 144.868 42.4284 145.042 42.6154C145.216 42.8025 145.459 42.898 145.775 42.898V43.0393H139.25V42.9458C139.564 42.9458 139.809 42.8523 139.982 42.6632C140.156 42.4762 140.282 42.2414 140.361 41.9588C140.439 41.6762 140.487 41.3645 140.503 41.0195C140.518 40.6746 140.526 40.3463 140.526 40.0346V14.918C140.526 14.6063 140.518 14.2842 140.503 13.9559C140.487 13.6276 140.441 13.3221 140.361 13.0395C140.282 12.7569 140.156 12.5221 139.982 12.3351C139.809 12.1481 139.564 12.0525 139.25 12.0525V11.959H145.775V12.0525C145.459 12.0525 145.214 12.146 145.042 12.3351C144.868 12.5221 144.743 12.7569 144.663 13.0395C144.584 13.3221 144.538 13.6255 144.521 13.9559C144.504 14.2842 144.498 14.6063 144.498 14.918V28.0155C144.971 27.5771 145.578 26.9994 146.319 26.2784C147.059 25.5594 147.863 24.7843 148.729 23.9552C149.596 23.1261 150.493 22.2741 151.424 21.3972C152.353 20.5223 153.237 19.6912 154.071 18.9098C154.906 18.1285 155.656 17.4241 156.317 16.7965C156.978 16.1711 157.482 15.7014 157.83 15.3877C158.24 14.9804 158.585 14.5814 158.87 14.1907C159.154 13.8001 159.334 13.4468 159.414 13.1351C159.491 12.8234 159.462 12.5637 159.32 12.36C159.177 12.1564 158.901 12.0546 158.493 12.0546V11.9611H164.45V12.0546C164.04 12.0546 163.576 12.1647 163.057 12.3829C162.536 12.6032 161.994 12.892 161.427 13.2515C160.86 13.611 160.299 14.01 159.749 14.4484C159.196 14.8869 158.686 15.3399 158.213 15.8095C157.897 16.1233 157.392 16.6074 156.7 17.2641C156.007 17.9207 155.235 18.6563 154.383 19.4709C153.532 20.2855 152.649 21.1146 151.736 21.9582C150.161 23.4294 148.474 25.0253 146.679 26.7459C147.371 26.2139 148.026 25.8461 148.641 25.6425C149.257 25.4388 149.847 25.337 150.414 25.337C150.918 25.337 151.391 25.4077 151.832 25.549C152.274 25.6903 152.667 25.8711 153.015 26.0893C153.362 26.3095 153.653 26.5277 153.889 26.7459C154.126 26.9662 154.306 27.1677 154.433 27.3568C154.812 27.9511 155.331 28.7823 155.995 29.8442C156.656 30.9081 157.342 32.0115 158.051 33.1544C158.761 34.2973 159.453 35.3924 160.131 36.4397C160.809 37.4891 161.354 38.3265 161.762 38.952L161.755 38.9561Z" fill="#F4F2EF"/>
<path d="M179.341 26.3738C180.222 26.7187 181.113 27.1717 182.011 27.7349C182.909 28.298 183.729 28.9629 184.47 29.7297C185.21 30.4965 185.817 31.3568 186.29 32.3126C186.763 33.2685 187 34.3075 187 35.4338C187 36.9673 186.684 38.2515 186.054 39.2843C185.424 40.317 184.627 41.1461 183.666 41.7716C182.704 42.3971 181.626 42.8522 180.427 43.1327C179.228 43.4153 178.062 43.5545 176.928 43.5545C174.66 43.5545 172.563 43.1618 170.64 42.3805C168.717 41.5991 167.158 40.5498 165.959 39.2344L168.418 34.5402C168.512 36.1361 168.874 37.545 169.506 38.7648C169.79 39.2967 170.136 39.8204 170.546 40.3378C170.956 40.8552 171.46 41.3082 172.059 41.6989C172.657 42.0916 173.358 42.4116 174.162 42.661C174.965 42.9124 175.888 43.0371 176.928 43.0371C178.977 43.0371 180.584 42.5197 181.749 41.4869C182.915 40.4542 183.499 39.1388 183.499 37.5429C183.499 36.0717 183.208 34.8436 182.624 33.8566C182.04 32.8716 181.356 32.0654 180.567 31.4399C179.778 30.8144 178.991 30.3365 178.202 30.0082C177.414 29.6798 176.815 29.4222 176.407 29.2331C175.934 29.0149 175.478 28.8112 175.036 28.6222C174.658 28.4663 174.287 28.3105 173.925 28.1525C173.563 27.9967 173.27 27.8699 173.051 27.7764C172.452 27.5271 171.774 27.1738 171.019 26.7208C170.261 26.2678 169.569 25.7047 168.939 25.0314C168.309 24.3581 167.788 23.5519 167.378 22.6147C166.968 21.6755 166.811 20.5804 166.905 19.3294C166.968 18.5169 167.181 17.6546 167.543 16.7465C167.905 15.8384 168.457 14.9864 169.198 14.1885C169.939 13.3906 170.876 12.7339 172.011 12.2165C173.145 11.6991 174.515 11.4414 176.125 11.4414C177.734 11.4414 179.071 11.6222 180.239 11.9817C181.404 12.3412 182.396 12.7401 183.216 13.1786C184.131 13.6794 184.934 14.2591 185.627 14.9158L182.27 19.0946C182.333 17.7502 182.176 16.5449 181.797 15.4789C181.481 14.5708 180.9 13.7417 180.048 12.9916C179.196 12.2414 177.92 11.8653 176.219 11.8653C175.43 11.8653 174.683 12.0066 173.973 12.2871C173.264 12.5697 172.626 12.9521 172.059 13.4383C171.492 13.9246 171.019 14.5023 170.64 15.1755C170.261 15.8488 170.025 16.5761 169.931 17.3595C169.772 18.7684 170.073 20.1149 170.828 21.397C171.584 22.6812 172.766 23.6828 174.373 24.4018C175.191 24.7467 176.066 25.0979 176.997 25.4574C177.926 25.8169 178.707 26.1223 179.337 26.3738H179.341Z" fill="#F4F2EF"/>
<path d="M55.0383 4.83145C55.1534 4.9686 55.1471 5.13899 55.1617 5.30523C55.7142 11.7241 52.5795 23.2299 44.2428 22.4652C37.5342 21.8501 33.9266 13.2203 30.2563 8.81494C30.0408 8.55519 28.9212 7.26061 28.7392 7.18581C28.5864 7.12347 28.6157 7.24399 28.5823 7.30009C28.1993 7.95258 27.9126 9.30535 27.8624 10.0638C27.4669 15.9112 31.6416 18.6937 36.3623 20.9504C44.1529 24.6762 57.1057 27.3588 58.2943 37.6282C59.0057 43.7749 56.0699 49.481 50.7046 52.5211C43.9101 56.3716 35.6425 55.2183 28.6576 52.5066C19.7287 57.3898 8.29088 54.4453 0.228315 49.1839C-0.098122 48.7911 0.0295231 47.083 0.0211529 46.5033C-0.0206979 43.6564 0.121595 41.0943 0.893743 38.3119C2.88166 31.1449 8.87888 25.9541 15.9621 31.3153C21.771 35.7102 23.6083 43.004 29.0635 47.881C29.277 48.0722 30.4948 49.1091 30.6371 49.1631C30.8715 49.2525 30.8945 49.1756 31.0494 49.028C32.0789 48.0576 33.0749 45.6908 33.2026 44.2985C33.7634 38.1706 29.7917 35.2032 24.8241 32.7699C17.1423 29.0088 4.87376 26.3697 3.36294 16.3559C2.20577 8.72767 6.1523 2.03657 13.9177 0.436524C19.5236 -0.718834 24.9873 0.671335 30.0324 3.07348C31.0012 2.56853 31.8822 1.88488 32.9034 1.43188C39.9845 -1.70795 48.8862 0.719129 55.0404 4.83145H55.0383ZM49.8634 6.12811C45.5821 2.28385 39.407 -0.469476 33.7027 2.0428C33.3219 2.21112 31.3591 3.33115 31.3612 3.66155C31.5641 4.01896 32.0747 4.19143 32.4011 4.44287C34.7741 6.26734 36.9127 8.56974 39.2521 10.4794C42.0917 12.7984 48.6309 17.8562 51.8367 13.7314C54.0422 10.895 52.0355 8.07726 49.8634 6.12604V6.12811ZM28.5467 22.806C24.4725 18.1077 24.349 11.1942 27.4795 5.96395C23.6208 2.25684 17.7701 0.0728771 12.4676 1.835C5.67939 4.08961 3.69356 12.8067 9.09651 17.6277C16.592 24.3188 33.4328 24.8507 35.9354 36.3918C36.8834 40.7577 35.7178 45.4269 32.9327 48.8909C32.6648 49.2234 32.2609 49.5351 32.0098 49.8987C31.9533 49.9797 31.8696 50.0234 31.9617 50.1314C35.858 52.8183 41.3342 54.3622 46.032 53.1985C54.4482 51.1122 58.8111 41.5639 51.3303 35.5731C44.7095 30.2722 34.2677 29.3994 28.5488 22.8039L28.5467 22.806ZM22.1079 48.7039C18.2514 45.6762 11.528 36.8116 6.79053 36.3981C3.50105 36.1113 2.06138 39.168 2.41921 42.0211C2.65985 43.937 6.36783 47.4259 7.89957 48.6644C12.635 52.4899 19.8584 55.2682 25.8034 52.7123C26.0314 52.6146 27.1677 52.1533 27.1196 51.9268C27.084 51.7668 24.6608 50.5034 24.2737 50.2624C23.5058 49.7823 22.8152 49.2608 22.1079 48.7059V48.7039Z" fill="url(#paint0_linear_103_1176)"/>
</g>
<defs>
<linearGradient id="paint0_linear_103_1176" x1="29.1975" y1="0.000147679" x2="29.1975" y2="55.0001" gradientUnits="userSpaceOnUse">
<stop stop-color="#DBD3C2"/>
<stop offset="1" stop-color="#F9F5EE"/>
</linearGradient>
<clipPath id="clip0_103_1176">
<rect width="187" height="55" fill="white"/>
</clipPath>
</defs>
</svg>
