<svg width="152" height="45" viewBox="0 0 152 45" fill="none" xmlns="http://www.w3.org/2000/svg">
<path d="M79.4487 21.5825C80.1647 21.8647 80.8893 22.2353 81.619 22.696C82.3487 23.1568 83.0155 23.7008 83.6176 24.3281C84.2197 24.9555 84.713 25.6593 85.0974 26.4414C85.4818 27.2234 85.674 28.0735 85.674 28.9949C85.674 30.2496 85.4172 31.3002 84.9052 32.1452C84.3932 32.9901 83.7452 33.6685 82.9645 34.1802C82.182 34.6919 81.3061 35.0643 80.3314 35.2938C79.3568 35.525 78.4094 35.6389 77.4875 35.6389C75.6437 35.6389 73.9394 35.3176 72.3762 34.6783C70.8131 34.0391 69.5459 33.1806 68.5713 32.1044L70.5699 28.2639C70.6464 29.5695 70.9407 30.7222 71.4543 31.7202C71.6857 32.1554 71.9663 32.5838 72.2997 33.0071C72.6331 33.4305 73.043 33.8011 73.5295 34.1207C74.0159 34.442 74.5857 34.7038 75.2389 34.9079C75.892 35.1136 76.6421 35.2156 77.4875 35.2156C79.1527 35.2156 80.459 34.7923 81.4064 33.9473C82.3538 33.1024 82.8284 32.0262 82.8284 30.7205C82.8284 29.5168 82.592 28.5121 82.1174 27.7045C81.6428 26.8987 81.0866 26.2391 80.4454 25.7273C79.8042 25.2156 79.1646 24.8246 78.5234 24.556C77.8821 24.2873 77.3957 24.0765 77.064 23.9218C76.6796 23.7433 76.3088 23.5767 75.9499 23.422C75.642 23.2945 75.3409 23.167 75.0467 23.0378C74.7524 22.9103 74.5143 22.8066 74.3357 22.73C73.8492 22.526 73.2981 22.237 72.6841 21.8664C72.0684 21.4958 71.5054 21.035 70.9934 20.4842C70.4814 19.9334 70.0579 19.2737 69.7245 18.507C69.3911 17.7386 69.2636 16.8426 69.3401 15.8191C69.3911 15.1544 69.5646 14.4489 69.8589 13.7059C70.1531 12.963 70.6022 12.2659 71.2043 11.6131C71.8064 10.9603 72.5684 10.423 73.4903 9.99971C74.4122 9.57638 75.5263 9.36557 76.8343 9.36557C78.1424 9.36557 79.2292 9.51348 80.1784 9.80759C81.1258 10.1017 81.932 10.4281 82.5988 10.7869C83.3421 11.1966 83.9952 11.6709 84.5582 12.2081L81.8299 15.627C81.881 14.5271 81.7534 13.541 81.4455 12.6689C81.1887 11.9259 80.7158 11.2476 80.0236 10.6338C79.3313 10.0201 78.2937 9.71239 76.9109 9.71239C76.2696 9.71239 75.6624 9.828 75.0858 10.0575C74.5092 10.2887 73.9904 10.6015 73.5295 10.9994C73.0685 11.3972 72.6841 11.8698 72.3762 12.4206C72.0684 12.9715 71.8762 13.5665 71.7996 14.2075C71.6704 15.3601 71.9153 16.4618 72.5293 17.5107C73.1434 18.5614 74.1044 19.3809 75.4107 19.9691C76.0757 20.2513 76.7867 20.5386 77.5436 20.8327C78.2988 21.1269 78.9333 21.3768 79.4453 21.5825H79.4487Z" fill="#2E2A28"/>
<path d="M92.8215 9.86876C92.5647 9.86876 92.3657 9.94527 92.2262 10.1C92.085 10.253 91.983 10.4451 91.9183 10.6763C91.8537 10.9075 91.8163 11.1557 91.8027 11.4261C91.7891 11.6947 91.784 11.9582 91.784 12.2132V32.7623C91.784 33.019 91.7908 33.2808 91.8027 33.5494C91.8146 33.8181 91.8537 34.068 91.9183 34.2992C91.9813 34.5304 92.085 34.7225 92.2262 34.8755C92.3674 35.0285 92.5647 35.1067 92.8215 35.1067V35.2223H87.5181V35.1458C87.7732 35.1458 87.9722 35.0693 88.1134 34.9146C88.2546 34.7616 88.3566 34.5695 88.4213 34.3383C88.4842 34.1071 88.5233 33.8521 88.5369 33.5698C88.5488 33.2876 88.5556 33.019 88.5556 32.764V12.2149C88.5556 11.9599 88.5488 11.6964 88.5369 11.4278C88.5233 11.1591 88.4859 10.9092 88.4213 10.678C88.3566 10.4468 88.2546 10.2547 88.1134 10.1017C87.9722 9.94867 87.7732 9.87046 87.5181 9.87046V9.79396H92.8215V9.87046V9.86876Z" fill="#2E2A28"/>
<path d="M95.0884 35.2189V35.1424C95.3435 35.1424 95.5425 35.0659 95.6837 34.9112C95.8249 34.7582 95.9269 34.5661 95.9916 34.3349C96.0545 34.1037 96.0936 33.8487 96.1072 33.5664C96.1191 33.2842 96.1259 33.0156 96.1259 32.7606V12.2115C96.1259 11.9565 96.1191 11.693 96.1072 11.4244C96.0936 11.1557 96.0562 10.9058 95.9916 10.6746C95.9269 10.4434 95.8249 10.2513 95.6837 10.0983C95.5425 9.94527 95.3435 9.86706 95.0884 9.86706V9.79056H100.392V9.86706C100.135 9.86706 99.936 9.94357 99.7965 10.0983C99.6553 10.2513 99.5533 10.4434 99.4887 10.6746C99.424 10.9058 99.3866 11.154 99.373 11.4244C99.3594 11.693 99.3543 11.9565 99.3543 12.2115V34.7956H105.925C106.694 34.7956 107.442 34.5406 108.174 34.0272C108.903 33.5154 109.563 32.951 110.152 32.3373C110.817 31.6215 111.444 30.8004 112.035 29.8789L110.881 35.2563L95.0884 35.2172V35.2189Z" fill="#2E2A28"/>
<path d="M131.48 31.8767C132.068 32.7726 132.659 33.5343 133.247 34.1616C133.836 34.7889 134.375 35.1035 134.861 35.1035V35.2191H132.017C131.48 35.2191 131.031 35.1749 130.672 35.0848C130.313 34.9947 130 34.8535 129.73 34.6614C129.461 34.4693 129.204 34.2194 128.961 33.9117C128.718 33.604 128.442 33.2334 128.134 32.7981C127.75 32.2609 127.308 31.5945 126.809 30.8005C126.309 30.0066 125.797 29.1871 125.272 28.3422C124.746 27.4972 124.241 26.6778 123.754 25.8838C123.268 25.0899 122.844 24.4234 122.485 23.8862C122.152 23.3745 121.781 23.0158 121.371 22.81C120.961 22.606 120.526 22.5023 120.065 22.5023C119.169 22.5023 118.298 22.8474 117.452 23.5394V32.7573C117.452 33.014 117.459 33.2759 117.471 33.5445C117.483 33.8131 117.522 34.063 117.587 34.2942C117.65 34.5254 117.753 34.7175 117.895 34.8705C118.036 35.0236 118.233 35.1018 118.49 35.1018V35.2174H113.187V35.1409C113.442 35.1409 113.641 35.0644 113.782 34.9096C113.923 34.7566 114.025 34.5645 114.09 34.3333C114.153 34.1021 114.192 33.8471 114.205 33.5649C114.217 33.2827 114.224 33.014 114.224 32.759V12.2099C114.224 11.9549 114.217 11.6914 114.205 11.4228C114.192 11.1542 114.154 10.9043 114.09 10.673C114.025 10.4418 113.923 10.2497 113.782 10.0967C113.641 9.9437 113.442 9.86549 113.187 9.86549V9.78899H118.49V9.86549C118.233 9.86549 118.034 9.942 117.895 10.0967C117.753 10.2497 117.651 10.4418 117.587 10.673C117.522 10.9043 117.485 11.1525 117.471 11.4228C117.458 11.6914 117.452 11.9549 117.452 12.2099V22.9257C117.837 22.5669 118.33 22.0943 118.932 21.5044C119.534 20.9161 120.188 20.282 120.892 19.6037C121.596 18.9253 122.326 18.2283 123.082 17.5108C123.838 16.7951 124.555 16.1151 125.234 15.4758C125.913 14.8366 126.522 14.2602 127.059 13.7468C127.597 13.2351 128.007 12.8509 128.289 12.5941C128.622 12.2609 128.903 11.9345 129.134 11.6149C129.366 11.2953 129.512 11.0063 129.577 10.7512C129.64 10.4962 129.616 10.2837 129.5 10.1171C129.384 9.9505 129.16 9.86719 128.828 9.86719V9.79069H133.671V9.86719C133.337 9.86719 132.96 9.9573 132.538 10.1358C132.114 10.316 131.674 10.5523 131.213 10.8464C130.752 11.1406 130.296 11.467 129.849 11.8257C129.4 12.1844 128.985 12.555 128.6 12.9393C128.343 13.196 127.933 13.5921 127.37 14.1293C126.807 14.6666 126.18 15.2684 125.488 15.9348C124.795 16.6013 124.077 17.2796 123.336 17.9699C122.055 19.1735 120.684 20.4792 119.225 21.8869C119.788 21.4517 120.32 21.1507 120.82 20.9841C121.32 20.8175 121.8 20.7342 122.261 20.7342C122.671 20.7342 123.055 20.792 123.414 20.9076C123.773 21.0232 124.093 21.1711 124.375 21.3497C124.658 21.5299 124.894 21.7084 125.086 21.8869C125.278 22.0671 125.425 22.232 125.528 22.3867C125.836 22.8729 126.258 23.553 126.797 24.4217C127.335 25.2922 127.893 26.1949 128.469 27.13C129.046 28.0651 129.609 28.961 130.16 29.8179C130.711 30.6764 131.153 31.3615 131.485 31.8733L131.48 31.8767Z" fill="#2E2A28"/>
<path d="M145.774 21.5826C146.49 21.8648 147.215 22.2355 147.945 22.6962C148.674 23.1569 149.341 23.7009 149.943 24.3283C150.545 24.9556 151.039 25.6595 151.423 26.4415C151.808 27.2235 152 28.0736 152 28.9951C152 30.2497 151.743 31.3004 151.231 32.1453C150.719 32.9903 150.071 33.6686 149.29 34.1804C148.508 34.6921 147.632 35.0644 146.657 35.2939C145.682 35.5251 144.735 35.639 143.813 35.639C141.969 35.639 140.265 35.3177 138.702 34.6785C137.139 34.0392 135.872 33.1807 134.897 32.1045L136.896 28.264C136.972 29.5697 137.266 30.7224 137.78 31.7203C138.011 32.1555 138.292 32.584 138.625 33.0073C138.959 33.4306 139.369 33.8012 139.855 34.1208C140.342 34.4422 140.911 34.704 141.565 34.908C142.218 35.1137 142.968 35.2157 143.813 35.2157C145.478 35.2157 146.785 34.7924 147.732 33.9474C148.68 33.1025 149.154 32.0263 149.154 30.7207C149.154 29.517 148.918 28.5122 148.443 27.7047C147.969 26.8988 147.412 26.2392 146.771 25.7275C146.13 25.2157 145.49 24.8247 144.849 24.5561C144.208 24.2875 143.721 24.0767 143.39 23.922C143.005 23.7434 142.634 23.5768 142.276 23.4221C141.968 23.2946 141.667 23.1671 141.372 23.0379C141.078 22.9104 140.84 22.8067 140.661 22.7302C140.175 22.5262 139.624 22.2372 139.01 21.8665C138.394 21.4959 137.831 21.0352 137.319 20.4844C136.807 19.9335 136.384 19.2739 136.05 18.5071C135.717 17.7387 135.589 16.8427 135.666 15.8193C135.717 15.1545 135.89 14.449 136.185 13.7061C136.479 12.9631 136.928 12.2661 137.53 11.6132C138.132 10.9604 138.894 10.4232 139.816 9.99984C140.738 9.57652 141.852 9.36571 143.16 9.36571C144.468 9.36571 145.555 9.51361 146.504 9.80773C147.451 10.1018 148.258 10.4283 148.924 10.787C149.668 11.1967 150.321 11.671 150.884 12.2083L148.156 15.6272C148.207 14.5272 148.079 13.5411 147.771 12.669C147.514 11.9261 147.042 11.2477 146.349 10.634C145.657 10.0202 144.619 9.71253 143.237 9.71253C142.595 9.71253 141.988 9.82813 141.411 10.0576C140.835 10.2889 140.316 10.6017 139.855 10.9995C139.394 11.3973 139.01 11.87 138.702 12.4208C138.394 12.9716 138.202 13.5667 138.125 14.2076C137.996 15.3603 138.241 16.4619 138.855 17.5109C139.469 18.5615 140.43 19.381 141.736 19.9692C142.401 20.2514 143.112 20.5388 143.869 20.8329C144.625 21.127 145.259 21.3769 145.771 21.5826H145.774Z" fill="#2E2A28"/>
<path d="M44.735 3.95934C44.8285 4.07155 44.8234 4.21096 44.8353 4.34697C45.2843 9.59857 42.7364 19.012 35.9599 18.3864C30.5068 17.8832 27.5744 10.8226 24.591 7.21843C24.4158 7.00592 23.5058 5.94676 23.3578 5.88556C23.2336 5.83455 23.2575 5.93316 23.2302 5.97906C22.919 6.51289 22.686 7.61965 22.6451 8.24019C22.3237 13.0243 25.717 15.3007 29.5543 17.147C35.8868 20.1953 46.4155 22.3901 47.3816 30.792C47.9599 35.8209 45.5735 40.4894 41.2124 42.9766C35.6895 46.1269 28.9691 45.1833 23.2915 42.9647C16.0337 46.9599 6.73644 44.5509 0.182807 40.2463C-0.0825365 39.9249 0.0212195 38.5275 0.0144158 38.0531C-0.0196026 35.724 0.0960599 33.6278 0.723699 31.3513C2.33957 25.4877 7.2144 21.2408 12.972 25.6271C17.6938 29.2228 19.1872 35.1902 23.6215 39.1803C23.795 39.3367 24.7849 40.185 24.9005 40.2293C25.0911 40.3024 25.1098 40.2395 25.2356 40.1187C26.0725 39.3248 26.8821 37.3884 26.9859 36.2493C27.4417 31.2357 24.2134 28.808 20.1754 26.8172C13.9313 23.74 3.95884 21.5809 2.73078 13.3881C1.79358 7.14023 5.00151 1.66591 11.3119 0.356833C15.8687 -0.588422 20.3098 0.548945 24.4107 2.51426C25.1982 2.10113 25.9143 1.5418 26.7443 1.17118C32.5003 -1.39767 39.736 0.588048 44.7384 3.95254L44.735 3.95934ZM40.5286 5.02021C37.0485 1.87502 32.0291 -0.377609 27.3924 1.67781C27.0828 1.81552 25.4874 2.73187 25.4891 3.00219C25.6541 3.2946 26.0691 3.43571 26.3344 3.64143C28.2633 5.13411 30.0016 7.01782 31.9032 8.58021C34.2114 10.4775 39.5267 14.6156 42.1326 11.2409C43.9253 8.92023 42.2941 6.6149 40.5286 5.0185V5.02021ZM23.2013 18.6652C19.8896 14.8213 19.7893 9.16505 22.3339 4.8859C19.1991 1.85292 14.4416 0.0661171 10.1315 1.5078C4.6137 3.35241 2.99953 10.4843 7.3913 14.4286C13.484 19.9029 27.173 20.3381 29.2073 29.7804C29.9778 33.3524 29.0304 37.1725 26.7665 40.0065C26.5487 40.2786 26.2205 40.5336 26.0164 40.8311C25.9704 40.8974 25.9024 40.9331 25.9772 41.0215C29.1443 43.2197 33.5956 44.4829 37.4142 43.5308C44.2553 41.8239 47.8017 34.012 41.7209 29.1106C36.3392 24.7737 27.8516 24.0596 23.203 18.6635L23.2013 18.6652ZM17.9676 39.8518C14.8328 37.3748 9.36776 30.1222 5.51689 29.7838C2.84304 29.5492 1.67281 32.0501 1.96367 34.3843C2.15927 35.9518 5.1733 38.8063 6.41837 39.8195C10.2675 42.9494 16.1391 45.2224 20.9714 43.1313C21.1568 43.0514 22.0804 42.674 22.0413 42.4887C22.0124 42.3578 20.0427 41.3241 19.7281 41.1269C19.1038 40.7342 18.5425 40.3075 17.9676 39.8535V39.8518Z" fill="url(#paint0_linear_111_1184)"/>
<defs>
<linearGradient id="paint0_linear_111_1184" x1="23.7303" y1="0.00491319" x2="23.7303" y2="45.0048" gradientUnits="userSpaceOnUse">
<stop stop-color="#2E2A28"/>
<stop offset="1" stop-color="#716459"/>
</linearGradient>
</defs>
</svg>
