<svg width="100%" height="100%" viewBox="0 0 27 12" fill="none" xmlns="http://www.w3.org/2000/svg">
<path d="M23.1189 9.09596C21.3309 9.09596 20.0469 7.78796 20.0469 5.97596C20.0469 4.15196 21.3309 2.85596 23.1189 2.85596C24.9189 2.85596 26.2029 4.15196 26.2029 5.97596C26.2029 7.78796 24.9189 9.09596 23.1189 9.09596ZM23.1189 8.23196C24.3669 8.23196 25.2189 7.29596 25.2189 5.97596C25.2189 4.65596 24.3669 3.71996 23.1189 3.71996C21.8829 3.71996 21.0309 4.65596 21.0309 5.97596C21.0309 7.29596 21.8829 8.23196 23.1189 8.23196Z" fill="black"/>
<path d="M13.5498 11.448V10.62H16.3458C17.1258 10.62 17.6778 10.044 17.6778 9.22796V8.15996C17.3898 8.71196 16.5738 9.09596 15.6498 9.09596C13.7898 9.09596 12.7578 7.73996 12.7578 5.97596C12.7578 4.21196 13.7898 2.85596 15.6618 2.85596C16.4658 2.85596 17.2938 3.26396 17.6778 3.83996V2.95196H18.6378V9.26396C18.6378 10.56 17.7378 11.448 16.4058 11.448H13.5498ZM15.7578 8.23196C16.9698 8.23196 17.7618 7.34396 17.7618 5.97596C17.7618 4.60796 16.9698 3.71996 15.7578 3.71996C14.5458 3.71996 13.7538 4.60796 13.7538 5.97596C13.7538 7.34396 14.5458 8.23196 15.7578 8.23196Z" fill="black"/>
<path d="M8.68138 9.09596C6.89337 9.09596 5.60938 7.78796 5.60938 5.97596C5.60938 4.15196 6.89337 2.85596 8.68138 2.85596C10.4814 2.85596 11.7654 4.15196 11.7654 5.97596C11.7654 7.78796 10.4814 9.09596 8.68138 9.09596ZM8.68138 8.23196C9.92938 8.23196 10.7814 7.29596 10.7814 5.97596C10.7814 4.65596 9.92938 3.71996 8.68138 3.71996C7.44537 3.71996 6.59337 4.65596 6.59337 5.97596C6.59337 7.29596 7.44537 8.23196 8.68138 8.23196Z" fill="black"/>
<path d="M0.0195312 9.0001V0.600098H1.05153V8.0761H5.25153V9.0001H0.0195312Z" fill="black"/>
</svg>
